<svg xmlns="http://www.w3.org/2000/svg" xmlns:xlink="http://www.w3.org/1999/xlink" version="1.1" x="0px" y="0px" viewBox="0 0 100 125" enable-background="new 0 0 100 100" xml:space="preserve"><path fill="#000000" d="M97.432,16.95l-43.529,2.38c-0.202-1.392-0.518-2.601-0.842-3.566L94.759,8.54  c0.943-0.164,1.573-1.06,1.41-2.002c-0.162-0.941-1.056-1.573-2.001-1.41l-42.889,7.43c-0.504-0.272-1.121-0.314-1.661-0.01  c-0.172,0.097-0.306,0.232-0.429,0.373l-3.574,0.619c-0.092-0.18-0.161-0.311-0.18-0.344c-0.471-0.829-1.521-1.118-2.353-0.647  c-0.585,0.33-0.884,0.951-0.859,1.579l-2.671,0.463c-0.334-0.814-0.608-1.316-0.652-1.395c-0.473-0.829-1.521-1.118-2.353-0.647  c-0.83,0.469-1.122,1.524-0.657,2.355c0.015,0.029,0.074,0.14,0.15,0.294l-9.068,1.572c-0.939,0.163-1.572,1.059-1.41,2.001  c0.147,0.842,0.879,1.436,1.704,1.436c0.098,0,0.198-0.009,0.297-0.025l9.616-1.666c0.118,0.523,0.216,1.102,0.291,1.714  l-3.557,0.194c-0.954,0.052-1.686,0.868-1.633,1.823c0.051,0.922,0.815,1.637,1.728,1.637c0.03,0,0.064-0.001,0.095-0.002  l3.427-0.188c-0.127,1.488-0.461,3.094-1.126,4.777c-12.403,0.439-36.054,2.163-36.054,8.933c0,0.189,0.044,0.369,0.081,0.551  c-0.128,2.85-0.862,25.081,12.373,39.124C14.738,79.125,17,80.866,19,82.353v9.664C19,92.974,20.191,94,21.147,94h45.009  C67.112,94,67,92.974,67,92.017V81.731c3-1.906,6.371-4.228,8.795-6.969c11.834-13.376,11.433-32.325,11.049-37.247  c0.007-0.078-0.072-0.742-0.156-1.016c-0.008-0.046-0.156-0.797-0.501-1.279c-4.219-4.68-21.888-6.188-33.083-6.672  c0.668-2.043,0.972-3.989,1.016-5.764l43.499-2.378c0.957-0.052,1.688-0.868,1.638-1.823C99.202,17.629,98.367,16.906,97.432,16.95z   M49.609,16.361c0.294,0.788,0.623,1.859,0.837,3.158l-3.028,0.166c-0.137-1.056-0.338-2.011-0.568-2.845L49.609,16.361z   M40.58,17.925l2.849-0.493c0.206,0.696,0.396,1.518,0.529,2.441l-3.024,0.166C40.849,19.28,40.724,18.58,40.58,17.925z   M41.011,23.501l3.08-0.168c-0.098,1.543-0.409,3.222-1.089,4.989c-0.634,0.004-1.631,0.016-2.899,0.042  C40.643,26.657,40.919,25.025,41.011,23.501z M83.608,37.421c-1.295,1.797-11.969,4.657-30.463,5.411  c-0.964-1.066-3.922-5.027-1.394-10.912c19.342,0.662,30.514,3.619,31.854,5.46C83.606,37.395,83.608,37.405,83.608,37.421z   M48.992,42.96c-0.73,0.016-1.479,0.026-2.23,0.036c-0.727-0.747-4.28-4.875-1.493-11.201c0.945,0.006,1.9,0.009,2.813,0.025  C46.528,36.429,47.509,40.333,48.992,42.96z M40.221,42.991c-0.772-0.79-4.255-4.869-1.506-11.153  c0.923-0.02,1.88-0.028,2.838-0.037c-1.572,4.647-0.567,8.578,0.932,11.21C41.721,43.008,40.963,43.002,40.221,42.991z   M34.971,31.943c-1.481,4.513-0.538,8.341,0.909,10.945c-19.503-0.655-30.749-3.643-32.018-5.487  C5.113,35.586,16.019,32.658,34.971,31.943z M64,90H22v-5.716c6,2.593,11.721,3.934,18.711,3.934c8.912,0,18.289-1.56,23.289-4.629  V90z M73.629,72.487c-7.21,8.14-18.066,12.268-32.267,12.268c-10.845,0-19.53-3.378-25.817-10.041  C5.733,64.316,4.112,48.432,3.897,41.416c10.089,4.996,38.392,5.069,39.847,5.069c1.462,0,30.093-0.076,40.021-5.159  C83.794,48.389,82.586,62.377,73.629,72.487z M49.497,28.418c-1.082-0.031-2.037-0.053-2.855-0.068  c0.58-1.835,0.86-3.588,0.928-5.207l3.084-0.168C50.584,24.641,50.254,26.481,49.497,28.418z"/><text x="0" y="115" fill="#000000" font-size="5px" font-weight="bold" font-family="'Helvetica Neue', Helvetica, Arial-Unicode, Arial, Sans-serif">Created by Mayene de La Cruz</text><text x="0" y="120" fill="#000000" font-size="5px" font-weight="bold" font-family="'Helvetica Neue', Helvetica, Arial-Unicode, Arial, Sans-serif">from the Noun Project</text></svg>